<?xml version="1.0" encoding="UTF-8"?>
<svg id="_레이어_1" data-name="레이어_1" xmlns="http://www.w3.org/2000/svg" version="1.1" viewBox="0 0 1739.8 1516.3">
  <!-- Generator: Adobe Illustrator 29.0.0, SVG Export Plug-In . SVG Version: 2.1.0 Build 186)  -->
  <defs>
    <style>
      .st0 {
        fill: #141414;
      }

      .st1 {
        fill: #fff;
      }
    </style>
  </defs>
  <g>
    <path class="st1" d="M708.1,1451.2l-28.8-38.1-11-2.5-53.8,27.6-62.6-8.7-45.4-42.2-11.3-.6-39.1,29.6-220.5-30.5-55.6-73.5,7.7-55.9,73.5-55.6,5.8.8,9.9-7.5,37.1-267.9-7.5-9.9-5.8-.8-55.6-73.5,7.4-53.5-10.4-9.8-62.9,12.6-76.7-51.1-9.9-49.4,57.5-86.9-25-125.1-86.5-58.1-9.9-49.4,51.1-76.7,3.1-.6,7.1-9c-1.9-45.8,7.8-87.4,28.9-123.5,29.7-51,80.2-83.9,149.9-97.9,16.7-3.3,32.9-5,48.1-5s38.7,2.9,56,8.5l10-3.5,11.9-17.9,58.2-11.6,76.7,51.1,21.1,105.2-22.8,34.3,2.4,12.2,39.3,26.2,49.6,247.9,3.7,5.6,74.2,49.4,13.6-6.4,7-69.3-5.7-6.9.3.2-60.6-74.2,5-50.1,71.4-58.3,133.1,13.4,19.3,23.6,10.7,2.3c6.3-3.1,12.9-6,19.5-8.4,21.4-7.7,44.5-11.6,68.7-11.6s15.9.4,24,1.2c69.6,7,108.3,39.8,128.4,66.1l14.5-.8c13.9-23,31.7-43.4,52.9-60.6,34.2-27.7,76.4-45.1,125.3-51.9,3.4-.5,6.9-.9,10.3-1.2l4.5-15.8-49.7-37.6-6.9-49.9,55.7-73.4,155.6-21.4,73.4,55.7,59.4,431.7,3.4,5.8,74.6,56.5,6.9,49.9-55.7,73.4-77.3,10.6-5.1,14.8,58.9,61.2-14.8,392-13,12.6v12.5c-.1,0,29.1,29.2,29.1,29.2v82.6l-65.2,65.2h-85.5l-65.2-65.2v-51.4l-14.3-6.9c-7.3,5.9-15.2,11.4-23.2,16.5-41.1,25.7-88.9,38.7-142.2,38.7s-96.5-11.2-135.2-33.4c-39.5-22.6-70.2-54.4-91.5-94.4-13.7-25.9-23-54.5-27.5-85.3h-17.4c0,0-19.3,139.8-19.3,139.8l7.5,9.9,5.8.8,55.6,73.5-7.7,55.9-73.5,55.6-227.3-31.4Z"/>
    <path d="M453,33.8l76.7,51.1,21.1,105.2-22.8,34.3,2.4,12.2,39.3,26.2,49.6,247.9,3.7,5.6,74.2,49.4,13.6-6.4,7-69.3-5.7-6.9.3.2-60.6-74.2,5-50.1,71.4-58.3,133.1,13.4,19.3,23.6,10.7,2.3c6.3-3.1,12.9-6,19.5-8.4,21.4-7.7,44.5-11.6,68.7-11.6s15.9.4,24,1.2c69.6,7,108.3,39.8,128.4,66.1l14.5-.8c13.9-23,31.7-43.4,52.9-60.6,34.2-27.7,76.4-45.1,125.3-51.9,3.4-.5,6.9-.9,10.3-1.2l4.5-15.8-49.7-37.7-6.9-49.9,55.7-73.4,155.6-21.4,73.4,55.7,59.4,431.7,3.4,5.8,74.6,56.5,6.9,49.9-55.7,73.4-77.3,10.6-5.1,14.8,58.9,61.2-14.8,392-13,12.6v12.5c-.1,0,29.1,29.2,29.1,29.2v82.6l-65.2,65.2h-85.5l-65.2-65.2v-51.4l-14.3-6.9c-7.3,5.9-15.2,11.4-23.2,16.5-41.1,25.7-88.9,38.7-142.2,38.7s-96.5-11.2-135.2-33.4c-39.5-22.6-70.2-54.4-91.5-94.4-13.7-25.9-23-54.5-27.5-85.3h-17.4c0,0-19.3,139.8-19.3,139.8l7.5,9.9,5.8.8,55.6,73.5-7.7,55.9-73.5,55.6-227.3-31.4-28.8-38.1-11-2.5-53.8,27.6-62.6-8.7-45.4-42.2-11.3-.6-39.1,29.6-220.5-30.5-55.6-73.5,7.7-55.9,73.5-55.6,5.8.8,9.9-7.5,37.1-267.9-7.5-9.9-5.8-.8-55.6-73.5,7.4-53.5-10.4-9.8-62.9,12.6-76.7-51.1-9.9-49.4,57.5-86.9-25-125.1-86.5-58.1-9.9-49.4,51.1-76.7,3.1-.6,7.1-9c-1.9-45.8,7.8-87.4,28.9-123.5,29.7-51,80.2-83.9,149.9-97.9,16.7-3.3,32.9-5,48.1-5s38.7,2.9,56,8.5l10-3.5,11.9-17.9,58.2-11.6M454.2,28l-2.2.4-58.2,11.6-2.2.4-1.3,1.9-10.9,16.4-6.6,2.3c-17.4-5.5-36.2-8.2-55.9-8.2s-32.1,1.7-49.2,5.1c-71.3,14.3-123,48.1-153.6,100.5-21.3,36.6-31.3,78.4-29.7,124.5l-4.6,5.8-1.1.2-2.2.4-1.3,1.9-51.1,76.7-1.3,1.9.4,2.2,9.9,49.4.4,2.2,1.9,1.3,84.6,56.8,24.2,120.7-56.2,85-1.3,1.9.4,2.2,9.9,49.4.4,2.2,1.9,1.3,76.7,51.1,1.9,1.3,2.2-.4,60.1-12,6.3,5.9-7,50.7-.3,2.3,1.4,1.8,55.6,73.5,1.4,1.8,2.3.3,3.6.5,4.7,6.3-36.5,263.4-6.3,4.7-3.6-.5-2.3-.3-1.8,1.4-73.5,55.6-1.8,1.4-.3,2.3-7.7,55.9-.3,2.3,1.4,1.8,55.6,73.5,1.4,1.8,2.3.3,220.5,30.5,2.3.3,1.8-1.4,37.5-28.4,7.3.4,43.9,40.9,1.3,1.2,1.7.2,62.6,8.7,1.7.2,1.5-.8,52-26.7,7.1,1.6,27.6,36.5,1.4,1.8,2.3.3,227.3,31.4,2.3.3,1.8-1.4,73.5-55.6,1.8-1.4.3-2.3,7.7-55.9.3-2.3-1.4-1.8-55.6-73.5-1.4-1.8-2.3-.3-3.6-.5-4.7-6.3,18.4-132.8h7.9c4.9,29.5,14,57.2,27.3,82.3,21.7,40.9,53.2,73.4,93.6,96.6,39.5,22.6,85.9,34.1,137.9,34.1s103.2-13.3,145.1-39.6c7.3-4.5,14.3-9.5,21-14.7l8.1,3.9v50.2l1.6,1.6,65.2,65.2,1.6,1.6h90l1.6-1.6,65.2-65.2,1.6-1.6v-87.2l-1.6-1.6-27.5-27.5v-7.9c0,0,11.4-11,11.4-11l1.6-1.5v-2.2c0,0,14.9-392,14.9-392v-2.3c0,0-1.5-1.7-1.5-1.7l-56.6-58.7,2.9-8.4,74-10.2,2.3-.3,1.4-1.8,55.7-73.4,1.4-1.8-.3-2.3-6.9-49.9-.3-2.3-1.8-1.4-73.7-55.9-2.3-3.9-59.3-430.6-.3-2.3-1.8-1.4-73.4-55.7-1.8-1.4-2.3.3-155.6,21.4-2.3.3-1.4,1.8-55.7,73.4-1.4,1.8.3,2.3,6.9,49.9.3,2.3,1.8,1.4,46.7,35.4-2.4,8.5c-2.2.3-4.5.5-6.8.8-49.9,6.9-93,24.7-128,53-20.9,16.9-38.6,36.9-52.6,59.5l-8.7.5c-21.3-26.7-60.9-58.9-130.4-65.9-8.3-.8-16.5-1.3-24.5-1.3-24.8,0-48.5,4-70.6,11.9-6.3,2.3-12.5,4.9-18.4,7.8l-7-1.5-18-22.1-1.4-1.8-2.3-.2-133.1-13.4-2.3-.2-1.8,1.4-71.4,58.3-1.8,1.4-.2,2.3-5,50.1-.2,2.3,1.4,1.8,43,52.7-.3-.2,17.6,21.5,4.2,5.2-6.4,64-8,3.8-70.7-47.1-2.5-3.8-49.4-246.8-.4-2.2-1.9-1.3-37.4-24.9-1.5-7.7,21.6-32.4,1.3-1.9-.4-2.2-21.1-105.2-.4-2.2-1.9-1.3-76.7-51.1-1.9-1.3h0Z"/>
  </g>
  <g>
    <path class="st0" d="M369.3,631.6l-79,15.8-52.6-263,99-19.8-11.3-56.5-99,19.8-5.1-25.6c-7.4-36.7-3.6-64.4,11.2-82.9,14.8-18.5,39.5-31.3,74.2-38.2,26.7-5.3,50.1-5.2,70.2.6,20.1,5.7,36.5,18.1,49.1,37.3l65.3-13.1-22.5-112.4-65.3,13.1,17,85-2.5.5c-13.1-31.2-30.9-52.1-53.6-62.5-22.7-10.4-50.5-12.4-83.5-5.7-52,10.4-88.2,33.2-108.8,68.5-20.6,35.3-25.8,78.1-15.7,128.4l4.1,20.4-72,14.4,11.3,56.5,72-14.4,52.6,263-72,14.4,11.3,56.5,217-43.4-11.3-56.5Z"/>
    <polygon class="st0" points="381.6 355.5 453.9 341.1 506.6 604.1 434.2 618.6 445.6 675.1 652 633.8 640.7 577.2 572.6 590.9 508.6 271.3 370.3 299 381.6 355.5"/>
    <path class="st0" d="M887.5,705.9l-61.3-6.2,13.6-135c2.9-29.2,10.6-53.7,22.9-73.5,12.3-19.8,27.8-34.3,46.3-43.7,18.6-9.4,38.8-13,60.7-10.8,26.4,2.7,45.1,12.6,56.2,30,11.1,17.3,15.2,39.9,12.4,67.7l-18.6,184.9-60.2-6.1-5.8,57.4,196,19.7,5.8-57.4-68.8-6.9,19.5-193.8c4.4-44.2-2.6-79.2-21.1-105.1-18.5-25.9-47.7-40.8-87.6-44.8-24-2.4-45.9,0-65.7,7.1-19.8,7.1-36.6,19-50.6,35.6-13.9,16.6-24.2,37.9-30.9,63.8l-2.8-.3,11.4-113-140.4-14.1-5.8,57.4,73.4,7.4-26.9,266.9-73.4-7.4-5.8,57.4,201.7,20.3,5.8-57.4Z"/>
    <path class="st0" d="M1499.6,601.9l2.8-.4,14.2,103.2,134.8-18.6-7.9-57.1-68.1,9.4-69.3-503.4-162.8,22.4,7.9,57.1,96.1-13.2,24.3,176.8c-16.6-15.7-35.1-27.5-55.6-35.1-25.5-9.5-53.2-12.2-83-8.1-37.8,5.2-69.5,18.1-95,38.7-25.5,20.6-43.8,46.9-55,78.8-11.2,31.9-14.1,67.2-8.7,106,3.9,28.6,11.9,54.4,24,77.3,12.1,22.9,27.3,42.2,45.7,57.7,18.4,15.5,39.2,26.7,62.3,33.4,23.1,6.7,47.6,8.3,73.7,4.7,25.5-3.5,46.9-11.3,64-23.3,17.1-12,30.3-27.1,39.3-45.4,9.1-18.2,14.5-38.6,16.2-61ZM1451.2,642.7c-17,14.3-38.4,23.2-64.5,26.8-24.8,3.4-47.4.6-67.7-8.6-20.3-9.1-37.1-23.3-50.3-42.6-13.3-19.3-21.7-42.4-25.4-69.3-3.7-27.2-2.1-51.8,5-73.9,7.1-22.1,19.2-40.2,36.2-54.5,17.1-14.3,38.5-23.2,64.3-26.7,26.5-3.6,49.8-.9,70,8.1,20.2,9,36.6,23.2,49.2,42.4,12.6,19.2,20.8,42.2,24.5,68.9h0c3.8,27.4,2.1,52.3-5.1,74.6-7.2,22.3-19.2,40.6-36.2,54.9Z"/>
    <rect class="st0" x="1479.8" y="1276.9" width="92.8" height="89.9"/>
    <polygon class="st0" points="1502 1227.5 1556.4 1227.5 1571.4 828.2 1486.9 828.2 1502 1227.5"/>
    <path class="st0" d="M1335.7,926.1c-28.3-17-61.9-25.4-100.8-25.4s-72.1,8.5-101,25.6c-28.9,17.1-51.3,40.7-67.3,70.9-16,30.2-24,64.8-24,103.7s7.9,72.9,23.6,102.6c15.8,29.7,38.3,53,67.7,69.8,29.4,16.8,64.2,25.2,104.6,25.2s78.3-9.8,109.6-29.4c31.3-19.6,53.8-46.3,67.7-80.2l-63.7-24c-9.3,22.2-23.8,39.7-43.5,52.5-19.7,12.8-43.3,19.2-70.7,19.2s-49.2-5.8-68.2-17.4c-19-11.6-33.5-27.6-43.7-48-7.3-14.7-11.9-31-14-48.9h310.3c.5-2.1.8-4.8,1.1-8.1.2-3.2.4-7.7.4-13.4,0-39.4-7.6-74.1-22.7-104.2-15.2-30.1-36.9-53.6-65.2-70.5ZM1169.7,978.9c18.6-11.8,40.3-17.7,65.2-17.7s47.7,5.9,65.9,17.5c18.1,11.7,32,27.6,41.7,47.8,6.5,13.5,10.7,28.4,12.9,44.6h-242.5c2.4-15.6,6.9-29.9,13.3-43,10.4-21,24.9-37.4,43.5-49.2Z"/>
    <polygon class="st0" points="607 1280.7 510.5 817.9 314.3 790.8 305.6 853.9 384.7 864.9 328.3 1272.1 249.2 1261.2 240.5 1324.3 468.2 1355.8 476.9 1292.7 393.6 1281.2 449.9 873.9 452.8 874.3 557.6 1368.2 625.7 1377.6 861.1 930.8 863.9 931.2 807.5 1338.4 721.7 1326.6 713 1389.7 947.4 1422.2 956.2 1359 877.1 1348.1 933.4 940.8 1012.5 951.8 1021.3 888.6 826.2 861.6 607 1280.7"/>
  </g>
</svg>